<mxfile host="Electron" agent="Mozilla/5.0 (X11; Linux x86_64) AppleWebKit/537.36 (KHTML, like Gecko) draw.io/24.7.17 Chrome/128.0.6613.36 Electron/32.0.1 Safari/537.36" version="24.7.17">
  <diagram name="PÃ¡gina-1" id="deQrFmjIq3PU1oyAQY_J">
    <mxGraphModel dx="1393" dy="829" grid="1" gridSize="10" guides="1" tooltips="1" connect="1" arrows="1" fold="1" page="1" pageScale="1" pageWidth="827" pageHeight="1169" math="0" shadow="0">
      <root>
        <mxCell id="0" />
        <mxCell id="1" parent="0" />
        <mxCell id="pds202Wm8yWpGF-Xqmpg-27" value="" style="rounded=0;whiteSpace=wrap;html=1;" vertex="1" parent="1">
          <mxGeometry x="230" y="70" width="510" height="1070" as="geometry" />
        </mxCell>
        <mxCell id="lUH5QnvvUMtT3iqDwxiY-8" value="" style="rounded=1;whiteSpace=wrap;html=1;strokeColor=#003366;strokeWidth=2;" parent="1" vertex="1">
          <mxGeometry x="314" y="800" width="210" height="70" as="geometry" />
        </mxCell>
        <mxCell id="lUH5QnvvUMtT3iqDwxiY-1" value="MASKED&amp;nbsp;&lt;div&gt;MULTI-HEAD ATTENTION&lt;/div&gt;" style="rounded=1;whiteSpace=wrap;html=1;strokeColor=#003366;strokeWidth=2;" parent="1" vertex="1">
          <mxGeometry x="304" y="820" width="210" height="70" as="geometry" />
        </mxCell>
        <mxCell id="lUH5QnvvUMtT3iqDwxiY-3" value="" style="endArrow=none;html=1;rounded=0;" parent="1" edge="1">
          <mxGeometry width="50" height="50" relative="1" as="geometry">
            <mxPoint x="344" y="980" as="sourcePoint" />
            <mxPoint x="484" y="980" as="targetPoint" />
          </mxGeometry>
        </mxCell>
        <mxCell id="lUH5QnvvUMtT3iqDwxiY-4" value="" style="endArrow=classic;html=1;rounded=0;" parent="1" edge="1">
          <mxGeometry width="50" height="50" relative="1" as="geometry">
            <mxPoint x="414" y="980" as="sourcePoint" />
            <mxPoint x="414" y="890" as="targetPoint" />
          </mxGeometry>
        </mxCell>
        <mxCell id="lUH5QnvvUMtT3iqDwxiY-5" value="" style="endArrow=classic;html=1;rounded=0;entryX=0.205;entryY=1;entryDx=0;entryDy=0;entryPerimeter=0;" parent="1" target="lUH5QnvvUMtT3iqDwxiY-1" edge="1">
          <mxGeometry width="50" height="50" relative="1" as="geometry">
            <mxPoint x="347" y="980" as="sourcePoint" />
            <mxPoint x="394" y="930" as="targetPoint" />
          </mxGeometry>
        </mxCell>
        <mxCell id="lUH5QnvvUMtT3iqDwxiY-6" value="" style="endArrow=classic;html=1;rounded=0;entryX=0.852;entryY=1.043;entryDx=0;entryDy=0;entryPerimeter=0;" parent="1" target="lUH5QnvvUMtT3iqDwxiY-1" edge="1">
          <mxGeometry width="50" height="50" relative="1" as="geometry">
            <mxPoint x="484" y="980" as="sourcePoint" />
            <mxPoint x="534" y="930" as="targetPoint" />
          </mxGeometry>
        </mxCell>
        <mxCell id="lUH5QnvvUMtT3iqDwxiY-7" value="" style="endArrow=none;html=1;rounded=0;" parent="1" edge="1">
          <mxGeometry width="50" height="50" relative="1" as="geometry">
            <mxPoint x="414" y="1190" as="sourcePoint" />
            <mxPoint x="414" y="980" as="targetPoint" />
          </mxGeometry>
        </mxCell>
        <mxCell id="pds202Wm8yWpGF-Xqmpg-12" style="edgeStyle=orthogonalEdgeStyle;rounded=0;orthogonalLoop=1;jettySize=auto;html=1;" edge="1" parent="1" source="lUH5QnvvUMtT3iqDwxiY-9">
          <mxGeometry relative="1" as="geometry">
            <mxPoint x="414.5000000000002" y="600" as="targetPoint" />
          </mxGeometry>
        </mxCell>
        <mxCell id="lUH5QnvvUMtT3iqDwxiY-9" value="ADD &amp;amp;&amp;nbsp;&lt;div&gt;NORM&lt;/div&gt;" style="rounded=1;whiteSpace=wrap;html=1;strokeColor=#CC6600;strokeWidth=2;" parent="1" vertex="1">
          <mxGeometry x="359" y="690" width="111" height="50" as="geometry" />
        </mxCell>
        <mxCell id="lUH5QnvvUMtT3iqDwxiY-24" style="edgeStyle=orthogonalEdgeStyle;rounded=0;orthogonalLoop=1;jettySize=auto;html=1;entryX=0.5;entryY=1;entryDx=0;entryDy=0;" parent="1" source="lUH5QnvvUMtT3iqDwxiY-10" target="lUH5QnvvUMtT3iqDwxiY-23" edge="1">
          <mxGeometry relative="1" as="geometry" />
        </mxCell>
        <mxCell id="lUH5QnvvUMtT3iqDwxiY-10" value="FEED FORWARD&lt;div&gt;NEURAL NETWORK&lt;/div&gt;" style="rounded=1;whiteSpace=wrap;html=1;strokeWidth=2;" parent="1" vertex="1">
          <mxGeometry x="348.5" y="250" width="141" height="60" as="geometry" />
        </mxCell>
        <mxCell id="lUH5QnvvUMtT3iqDwxiY-16" value="" style="endArrow=classic;html=1;rounded=0;" parent="1" edge="1">
          <mxGeometry width="50" height="50" relative="1" as="geometry">
            <mxPoint x="414" y="800" as="sourcePoint" />
            <mxPoint x="414" y="740" as="targetPoint" />
          </mxGeometry>
        </mxCell>
        <mxCell id="lUH5QnvvUMtT3iqDwxiY-19" value="" style="endArrow=classic;html=1;rounded=0;strokeColor=#0000FF;" parent="1" edge="1">
          <mxGeometry width="50" height="50" relative="1" as="geometry">
            <mxPoint x="609" y="710" as="sourcePoint" />
            <mxPoint x="470" y="710" as="targetPoint" />
          </mxGeometry>
        </mxCell>
        <mxCell id="lUH5QnvvUMtT3iqDwxiY-20" value="" style="endArrow=none;html=1;rounded=0;strokeColor=#0000FF;" parent="1" edge="1">
          <mxGeometry width="50" height="50" relative="1" as="geometry">
            <mxPoint x="610" y="1070" as="sourcePoint" />
            <mxPoint x="610" y="710" as="targetPoint" />
          </mxGeometry>
        </mxCell>
        <mxCell id="lUH5QnvvUMtT3iqDwxiY-21" value="" style="endArrow=none;html=1;rounded=0;strokeColor=#0000FF;fontStyle=1;exitX=0.25;exitY=0;exitDx=0;exitDy=0;" parent="1" edge="1">
          <mxGeometry width="50" height="50" relative="1" as="geometry">
            <mxPoint x="415" y="1070" as="sourcePoint" />
            <mxPoint x="610" y="1070" as="targetPoint" />
            <Array as="points">
              <mxPoint x="480" y="1070" />
            </Array>
          </mxGeometry>
        </mxCell>
        <mxCell id="lUH5QnvvUMtT3iqDwxiY-23" value="ADD &amp;amp;&amp;nbsp;&lt;div&gt;NORM&lt;/div&gt;" style="rounded=1;whiteSpace=wrap;html=1;strokeColor=#CC6600;strokeWidth=2;" parent="1" vertex="1">
          <mxGeometry x="363.5" y="130" width="111" height="50" as="geometry" />
        </mxCell>
        <mxCell id="lUH5QnvvUMtT3iqDwxiY-28" value="" style="endArrow=classic;html=1;rounded=0;" parent="1" edge="1">
          <mxGeometry width="50" height="50" relative="1" as="geometry">
            <mxPoint x="420" y="130" as="sourcePoint" />
            <mxPoint x="420" y="40" as="targetPoint" />
          </mxGeometry>
        </mxCell>
        <mxCell id="pds202Wm8yWpGF-Xqmpg-3" value="&lt;font color=&quot;#ff00ff&quot; size=&quot;1&quot; style=&quot;&quot;&gt;&lt;b style=&quot;font-size: 17px;&quot;&gt;Q&lt;/b&gt;&lt;/font&gt;" style="text;html=1;align=center;verticalAlign=middle;whiteSpace=wrap;rounded=0;" vertex="1" parent="1">
          <mxGeometry x="410" y="630" width="60" height="30" as="geometry" />
        </mxCell>
        <mxCell id="pds202Wm8yWpGF-Xqmpg-5" value="&lt;font color=&quot;#4c0099&quot; size=&quot;1&quot; style=&quot;&quot;&gt;&lt;b style=&quot;font-size: 17px;&quot;&gt;V&lt;/b&gt;&lt;/font&gt;" style="text;html=1;align=center;verticalAlign=middle;whiteSpace=wrap;rounded=0;" vertex="1" parent="1">
          <mxGeometry x="330" y="630" width="60" height="30" as="geometry" />
        </mxCell>
        <mxCell id="pds202Wm8yWpGF-Xqmpg-6" value="&lt;font color=&quot;#00ffff&quot; size=&quot;1&quot; style=&quot;&quot;&gt;&lt;b style=&quot;font-size: 17px;&quot;&gt;K&lt;/b&gt;&lt;/font&gt;" style="text;html=1;align=center;verticalAlign=middle;whiteSpace=wrap;rounded=0;" vertex="1" parent="1">
          <mxGeometry x="280" y="630" width="60" height="30" as="geometry" />
        </mxCell>
        <mxCell id="pds202Wm8yWpGF-Xqmpg-13" style="edgeStyle=orthogonalEdgeStyle;rounded=0;orthogonalLoop=1;jettySize=auto;html=1;entryX=0.5;entryY=1;entryDx=0;entryDy=0;" edge="1" parent="1" source="pds202Wm8yWpGF-Xqmpg-8" target="pds202Wm8yWpGF-Xqmpg-10">
          <mxGeometry relative="1" as="geometry" />
        </mxCell>
        <mxCell id="pds202Wm8yWpGF-Xqmpg-8" value="" style="rounded=1;whiteSpace=wrap;html=1;strokeColor=#FF0000;strokeWidth=2;" vertex="1" parent="1">
          <mxGeometry x="314.5" y="500" width="210" height="70" as="geometry" />
        </mxCell>
        <mxCell id="pds202Wm8yWpGF-Xqmpg-9" value="&lt;div&gt;MULTI-HEAD ATTENTION&lt;/div&gt;" style="rounded=1;whiteSpace=wrap;html=1;strokeColor=#FF0000;strokeWidth=2;" vertex="1" parent="1">
          <mxGeometry x="304" y="530" width="210" height="70" as="geometry" />
        </mxCell>
        <mxCell id="pds202Wm8yWpGF-Xqmpg-21" style="edgeStyle=orthogonalEdgeStyle;rounded=0;orthogonalLoop=1;jettySize=auto;html=1;" edge="1" parent="1" source="pds202Wm8yWpGF-Xqmpg-10" target="lUH5QnvvUMtT3iqDwxiY-10">
          <mxGeometry relative="1" as="geometry" />
        </mxCell>
        <mxCell id="pds202Wm8yWpGF-Xqmpg-10" value="ADD &amp;amp;&amp;nbsp;&lt;div&gt;NORM&lt;/div&gt;" style="rounded=1;whiteSpace=wrap;html=1;strokeColor=#CC6600;strokeWidth=2;" vertex="1" parent="1">
          <mxGeometry x="364" y="380" width="111" height="50" as="geometry" />
        </mxCell>
        <mxCell id="pds202Wm8yWpGF-Xqmpg-14" value="" style="endArrow=none;html=1;rounded=0;fillColor=#0050ef;strokeColor=#001DBC;" edge="1" parent="1">
          <mxGeometry width="50" height="50" relative="1" as="geometry">
            <mxPoint x="414" y="660" as="sourcePoint" />
            <mxPoint x="564" y="660" as="targetPoint" />
          </mxGeometry>
        </mxCell>
        <mxCell id="pds202Wm8yWpGF-Xqmpg-15" value="" style="endArrow=none;html=1;rounded=0;fillColor=#0050ef;strokeColor=#001DBC;" edge="1" parent="1">
          <mxGeometry width="50" height="50" relative="1" as="geometry">
            <mxPoint x="570" y="660" as="sourcePoint" />
            <mxPoint x="570" y="410" as="targetPoint" />
          </mxGeometry>
        </mxCell>
        <mxCell id="pds202Wm8yWpGF-Xqmpg-16" value="" style="endArrow=classic;html=1;rounded=0;fillColor=#0050ef;strokeColor=#001DBC;" edge="1" parent="1">
          <mxGeometry width="50" height="50" relative="1" as="geometry">
            <mxPoint x="570" y="410" as="sourcePoint" />
            <mxPoint x="475" y="410" as="targetPoint" />
          </mxGeometry>
        </mxCell>
        <mxCell id="pds202Wm8yWpGF-Xqmpg-17" value="" style="endArrow=none;html=1;rounded=0;" edge="1" parent="1">
          <mxGeometry width="50" height="50" relative="1" as="geometry">
            <mxPoint x="170" y="660" as="sourcePoint" />
            <mxPoint x="380" y="660" as="targetPoint" />
          </mxGeometry>
        </mxCell>
        <mxCell id="pds202Wm8yWpGF-Xqmpg-18" value="" style="endArrow=classic;html=1;rounded=0;" edge="1" parent="1">
          <mxGeometry width="50" height="50" relative="1" as="geometry">
            <mxPoint x="380" y="660" as="sourcePoint" />
            <mxPoint x="380" y="600" as="targetPoint" />
          </mxGeometry>
        </mxCell>
        <mxCell id="pds202Wm8yWpGF-Xqmpg-19" value="" style="endArrow=classic;html=1;rounded=0;" edge="1" parent="1">
          <mxGeometry width="50" height="50" relative="1" as="geometry">
            <mxPoint x="330" y="660" as="sourcePoint" />
            <mxPoint x="330" y="600" as="targetPoint" />
          </mxGeometry>
        </mxCell>
        <mxCell id="pds202Wm8yWpGF-Xqmpg-22" value="" style="endArrow=none;html=1;rounded=0;fillColor=#0050ef;strokeColor=#001DBC;" edge="1" parent="1">
          <mxGeometry width="50" height="50" relative="1" as="geometry">
            <mxPoint x="420" y="350" as="sourcePoint" />
            <mxPoint x="560" y="350" as="targetPoint" />
          </mxGeometry>
        </mxCell>
        <mxCell id="pds202Wm8yWpGF-Xqmpg-23" value="" style="endArrow=none;html=1;rounded=0;fillColor=#0050ef;strokeColor=#001DBC;" edge="1" parent="1">
          <mxGeometry width="50" height="50" relative="1" as="geometry">
            <mxPoint x="560" y="350" as="sourcePoint" />
            <mxPoint x="560" y="150" as="targetPoint" />
          </mxGeometry>
        </mxCell>
        <mxCell id="pds202Wm8yWpGF-Xqmpg-24" value="" style="endArrow=classic;html=1;rounded=0;fillColor=#0050ef;strokeColor=#001DBC;" edge="1" parent="1">
          <mxGeometry width="50" height="50" relative="1" as="geometry">
            <mxPoint x="560" y="154.38" as="sourcePoint" />
            <mxPoint x="480" y="154.38" as="targetPoint" />
          </mxGeometry>
        </mxCell>
        <mxCell id="pds202Wm8yWpGF-Xqmpg-28" value="&lt;font style=&quot;font-size: 17px;&quot;&gt;&lt;b&gt;+&lt;/b&gt;&lt;/font&gt;" style="ellipse;whiteSpace=wrap;html=1;aspect=fixed;" vertex="1" parent="1">
          <mxGeometry x="389" y="1190" width="50" height="50" as="geometry" />
        </mxCell>
        <mxCell id="pds202Wm8yWpGF-Xqmpg-29" value="" style="endArrow=none;html=1;rounded=0;" edge="1" parent="1">
          <mxGeometry width="50" height="50" relative="1" as="geometry">
            <mxPoint x="414" y="1310" as="sourcePoint" />
            <mxPoint x="414" y="1240" as="targetPoint" />
          </mxGeometry>
        </mxCell>
        <mxCell id="pds202Wm8yWpGF-Xqmpg-31" value="&lt;font style=&quot;font-size: 15px;&quot;&gt;&lt;b&gt;&amp;lt;SOS&amp;gt; &lt;/b&gt;Cuando pueda volverÃ© a JapÃ³n-&lt;/font&gt;" style="text;html=1;align=left;verticalAlign=middle;whiteSpace=wrap;rounded=0;" vertex="1" parent="1">
          <mxGeometry x="269.5" y="1330" width="300" height="30" as="geometry" />
        </mxCell>
        <mxCell id="pds202Wm8yWpGF-Xqmpg-32" value="&lt;font color=&quot;#330066&quot; style=&quot;font-size: 19px;&quot;&gt;&lt;b&gt;N times&lt;/b&gt;&lt;/font&gt;" style="text;html=1;align=center;verticalAlign=middle;whiteSpace=wrap;rounded=0;" vertex="1" parent="1">
          <mxGeometry x="120" y="580" width="60" height="30" as="geometry" />
        </mxCell>
      </root>
    </mxGraphModel>
  </diagram>
</mxfile>
